<?xml version="1.0" encoding="UTF-8"?>
<svg width="15px" height="30px" viewBox="0 0 15 30" version="1.1" xmlns="http://www.w3.org/2000/svg" xmlns:xlink="http://www.w3.org/1999/xlink">
    <!-- Generator: Sketch 51.2 (57519) - http://www.bohemiancoding.com/sketch -->
    <title>Facebook</title>
    <desc>Created with Sketch.</desc>
    <defs></defs>
    <g id="Page-1" stroke="none" stroke-width="1" fill="none" fill-rule="evenodd">
        <g id="MH_Desktop" transform="translate(-70.000000, -964.000000)" fill="#FFFFFF" fill-rule="nonzero">
            <path d="M73.5731707,969.890244 C73.5731707,970.658537 73.5731707,973.987805 73.5731707,973.987805 L70.5731707,973.987805 L70.5731707,979 L73.5731707,979 L73.5731707,993.926829 L79.7560976,993.926829 L79.7560976,979 L83.9268293,979 C83.9268293,979 84.2926829,976.621951 84.5121951,973.914634 C84,973.914634 79.7926829,973.914634 79.7926829,973.914634 C79.7926829,973.914634 79.7926829,970.987805 79.7926829,970.47561 C79.7926829,969.963415 80.4878049,969.268293 81.1463415,969.268293 C81.804878,969.268293 83.2317073,969.268293 84.5121951,969.268293 C84.5121951,968.573171 84.5121951,966.195122 84.5121951,964.036585 C82.7926829,964.036585 80.7804878,964.036585 79.902439,964.036585 C73.3536585,964.146341 73.5731707,969.158537 73.5731707,969.890244 Z" id="Facebook"></path>
        </g>
    </g>
</svg>