<?xml version="1.0" encoding="UTF-8"?>
<svg width="30px" height="30px" viewBox="0 0 30 30" version="1.1" xmlns="http://www.w3.org/2000/svg" xmlns:xlink="http://www.w3.org/1999/xlink">
    <!-- Generator: Sketch 51.2 (57519) - http://www.bohemiancoding.com/sketch -->
    <title>Shape</title>
    <desc>Created with Sketch.</desc>
    <defs></defs>
    <g id="Page-1" stroke="none" stroke-width="1" fill="none" fill-rule="evenodd">
        <g id="MH_Desktop" transform="translate(-231.000000, -964.000000)" fill="#FFFFFF" fill-rule="nonzero">
            <g id="Shape" transform="translate(231.000000, 964.000000)">
                <path d="M27,0 L3,0 C1.35,0 0,1.35 0,3 L0,27 C0,28.65 1.35,30 3,30 L27,30 C28.65,30 30,28.65 30,27 L30,3 C30,1.35 28.65,0 27,0 Z M15,9 C18.3,9 21,11.7 21,15 C21,18.3 18.3,21 15,21 C11.7,21 9,18.3 9,15 C9,11.7 11.7,9 15,9 Z M3.75,27 C3.3,27 3,26.7 3,26.25 L3,13.5 L6.15,13.5 C6,13.95 6,14.55 6,15 C6,19.95 10.05,24 15,24 C19.95,24 24,19.95 24,15 C24,14.55 24,13.95 23.85,13.5 L27,13.5 L27,26.25 C27,26.7 26.7,27 26.25,27 L3.75,27 Z M27,6.75 C27,7.2 26.7,7.5 26.25,7.5 L23.25,7.5 C22.8,7.5 22.5,7.2 22.5,6.75 L22.5,3.75 C22.5,3.3 22.8,3 23.25,3 L26.25,3 C26.7,3 27,3.3 27,3.75 L27,6.75 Z"></path>
            </g>
        </g>
    </g>
</svg>