<?xml version="1.0" encoding="UTF-8"?>
<svg width="35px" height="28px" viewBox="0 0 35 28" version="1.1" xmlns="http://www.w3.org/2000/svg" xmlns:xlink="http://www.w3.org/1999/xlink">
    <!-- Generator: Sketch 51.2 (57519) - http://www.bohemiancoding.com/sketch -->
    <title>Shape</title>
    <desc>Created with Sketch.</desc>
    <defs></defs>
    <g id="Page-1" stroke="none" stroke-width="1" fill="none" fill-rule="evenodd">
        <g id="MH_Desktop" transform="translate(-146.000000, -965.000000)" fill="#FFFFFF" fill-rule="nonzero">
            <path d="M180.397946,968.504493 C179.139923,969.043646 177.810013,969.403081 176.372272,969.582798 C177.810013,968.684211 178.960205,967.3543 179.391528,965.736842 C178.061617,966.563543 176.55199,967.174583 174.934531,967.426187 C173.676508,966.096277 171.807445,965.197689 169.830552,965.197689 C165.984596,965.161746 162.893453,968.288832 162.893453,972.134788 C162.893453,972.673941 163.001284,973.213094 163.073171,973.752246 C157.250321,973.464698 152.074454,970.697047 148.587933,966.419769 C147.94095,967.498074 147.617458,968.648267 147.617458,969.90629 C147.617458,972.314506 148.875481,974.471117 150.744544,975.72914 C149.594352,975.72914 148.516046,975.369705 147.545571,974.830552 L147.545571,974.938383 C147.509628,978.28113 149.953787,981.156611 153.15276,981.767651 C152.505777,981.947368 152.002567,982.055199 151.283697,982.055199 C150.816431,982.055199 150.385109,981.947368 149.953787,981.947368 C150.852375,984.715019 153.440308,986.7638 156.495507,986.7638 C154.051348,988.632863 151.032092,989.783055 147.797176,989.783055 C147.258023,989.783055 146.646983,989.783055 146.107831,989.675225 C149.234917,991.652118 152.901155,992.802311 156.818999,992.802311 C169.686778,992.802311 176.731707,982.16303 176.731707,972.889602 L176.731707,971.991014 C178.241335,971.164313 179.427471,969.90629 180.397946,968.504493 Z" id="Shape"></path>
        </g>
    </g>
</svg>