<svg fill="none" height="28" viewBox="0 0 119 28" width="119" xmlns="http://www.w3.org/2000/svg"><g clip-rule="evenodd" fill="#000070" fill-rule="evenodd"><path d="m113.082 9.4478c0 2.111-1.714 3.8225-3.827 3.8225s-3.827-1.7115-3.827-3.8225c0-1.54206 0-9.4106906 0-9.4106906h-5.212s-.002 4.9712006-.002 9.4148206c0 5.41007 4.342 9.03097 8.245 9.03097 2.072 0 3.693-.9175 4.623-2.2782v1.9204c0 2.1113-1.714 3.8226-3.827 3.8226-1.496 0-2.788-.8599-3.418-2.1104l-4.525 2.6093c1.533 2.8084 4.515 4.7137 7.943 4.7137 4.993 0 9.041-4.0433 9.041-9.0307v-18.0924906h-5.214z"/><path d="m44.4608 9.1973v9.6753h5.2144s0-8.3402 0-9.67111c0-2.14118 1.7135-3.8769 3.8268-3.8769 2.1134 0 3.8266 1.73572 3.8266 3.8769v9.67111h5.2124s.0019-5.1678.0019-9.6753c0-5.0591-4.0478-9.1601906-9.0409-9.1601906-4.9934 0-9.0412 4.1010906-9.0412 9.1601906z"/><path d="m95.7043.0371094c-4.9992 0-9.052 4.1010906-9.052 9.1601906v9.6753h5.2204s0-8.3402 0-9.67111c0-2.14118 1.7156-3.8769 3.8316-3.8769.531 0 1.0363.10935 1.4959.30676v-5.467473c-.4867-.0819312-.9859-.1267676-1.4959-.1267676z"/><path d="m32.7827 13.6613c-2.3231 0-4.2062-1.8832-4.2062-4.20626 0-2.32311 1.8831-4.20625 4.2062-4.20625s4.2066 1.88314 4.2066 4.20625c0 2.32306-1.8835 4.20626-4.2066 4.20626zm.0001-13.6241906c-5.2013 0-9.4176 4.2165606-9.4176 9.4179206 0 5.31267 3.7666 9.41757 8.8125 9.41757 2.078 0 3.7717-.8915 4.7398-2.297v2.297h5.2829l.0004-9.41757c0-5.29458-3.9263-9.4179206-9.418-9.4179206z"/><path d="m74.9748 13.6613c-2.3227 0-4.2061-1.8832-4.2061-4.20626 0-2.32311 1.8834-4.20625 4.2061-4.20625 2.3231 0 4.2062 1.88314 4.2062 4.20625 0 2.32306-1.8831 4.20626-4.2062 4.20626zm-.0003-13.6241906c-5.2012 0-9.4177 4.2165606-9.4177 9.4179206 0 5.31267 3.7665 9.41757 8.8126 9.41757 2.0776 0 3.7714-.8915 4.7394-2.297v2.297h5.2832l.0003-9.41757c0-5.29458-3.9262-9.4179206-9.4178-9.4179206z"/><path d="m9.64872 9.45519c0-2.28006 1.84328-4.13531 4.10908-4.13531 1.5171 0 2.8448.83313 3.5562 2.06878l4.5444-2.64025c-1.6205-2.81341-4.6436-4.7113006-8.1006-4.7113006-4.18998 0-7.73788 2.7888506-8.92726 6.6163006l-4.82138473 2.80178 4.82138473 2.80111c1.18873 3.8275 4.73696 6.6163 8.92726 6.6163 3.457 0 6.4804-1.8979 8.1006-4.7116l-4.5444-2.6403c-.7114 1.2357-2.0391 2.0688-3.5562 2.0688-2.2658 0-4.10908-1.8549-4.10908-4.13431z"/></g></svg>